<?xml version="1.0" encoding="utf-8"?>
<!-- Generator: Adobe Illustrator 24.1.2, SVG Export Plug-In . SVG Version: 6.00 Build 0)  -->
<svg version="1.1" id="Camada_1" xmlns="http://www.w3.org/2000/svg" xmlns:xlink="http://www.w3.org/1999/xlink" x="0px" y="0px"
	 viewBox="0 0 700 700" style="enable-background:new 0 0 700 700;" xml:space="preserve">
<style type="text/css">
	.st0{fill:#FFFFFF;}
</style>
<path class="st0" d="M227.8,320.9c12.6-58.2,65.9-102.8,128-102.8c62.1,0,114.4,44.6,128,102.8h213.3C682.2,141.6,531.7,0,348.5,0
	C165.4,0,14.9,141.6,0,320.9L227.8,320.9L227.8,320.9z"/>
<path class="st0" d="M483.8,379.1c-12.6,58.2-66.9,102.8-128.9,102.8s-114.4-44.6-128-102.8H0C14.9,558.4,165.4,700,348.6,700
	c183.1,0,333.7-141.6,348.5-320.9H483.8z"/>
<path class="st0" d="M282.1,350c0,40.7,32.9,73.7,73.7,73.7c40.7,0,73.7-33,73.7-73.7s-33-73.7-73.7-73.7
	C315.1,276.3,282.1,309.3,282.1,350z"/>
</svg>
